<svg xmlns="http://www.w3.org/2000/svg" xmlns:xlink="http://www.w3.org/1999/xlink" xmlns:fi="http://pattern.flaticon.com/" x="0" y="0" width="700" height="350" viewBox="0 0 1914.0625 957.03125"><rect x="0px" y="0px" width="100%" height="100%" opacity="0.4" fill="#af51bf"/><defs><g transform="matrix(0.17578125 0 0 0.17578125 305 305)" id="L1_74"><g><path d="m359.895 299.112c-3.603-10.857-16.838-10.347-35.432-4.999 1.317-.893 2.584-1.805 3.742-2.75 13.482-11.009 22.33-25.283 24.641-42.663 2.801-21.064-7.571-42.372-28.555-55.076 0 0-8.398-23.488-18.641-39.839-4.244-6.775-11.555-15.434-21.343-22.678 3.293-4.023 5.9-9.29 7.471-15.798 4.748-19.67-9.763-45.087-15.887-46.566-6.125-1.478-30.632 14.522-35.38 34.192-1.216 5.04-1.54 9.7-1.118 13.908-3.183.191-6.447.624-9.786 1.339l-44.725 9.572c-6.533 1.398-12.676 3.622-18.35 6.532-.371-.687-.757-1.376-1.174-2.068-10.553-17.514-39.034-25.488-44.487-22.202-5.454 3.286-11.715 32.192-1.163 49.706 3.465 5.751 7.542 10.014 11.9 12.89-5.325 13.228-6.898 28.132-3.689 43.125l9.739 41.731c4.507 21.057 9.942 34.436 17.25 46.352-13.761 17.033-22.018 39.111-26.443 61.87-12.967 16.119-18.763 29.046-10.005 38.094 9.403 9.714 23.453 1.538 40.836-14.467l147.191-31.501c-1.97-5.242-4.221-11.092-6.717-17.039 37.045-13.825 65.834-24.461 60.125-41.665z" fill="#ffffff"/><path d="m336.287 294.099c8.565-3.727 17.693-1.729 20.387 4.463s-2.065 14.232-10.63 17.959c-8.566 3.728-18.322-18.695-9.757-22.422z" fill="#a1e8c3"/><path d="m119.49 387.59c1.566-5.775 4.518-10.982 8.051-15.799 1.151-10.492 3.1-20.829 7.326-30.737 3.48-8.162 8.503-15.332 13.062-22.891 3.893-6.453 6.94-13.241 5.717-20.95-1.51-9.52-6.244-18.902-9.831-27.778-3.82-9.455-7.459-19.028-9.279-29.101-3.57-19.751 2.127-38.969 1.248-58.729-.191-4.294-.643-8.32-2.857-12.066-1.934-3.274-4.47-6.131-6.871-9.062-2.473-3.018-4.917-6.086-6.754-9.427-30.637 6.503-18.698 48.984-18.698 48.984s-35.183 11.074-35.646 63.471 38.911 61.567 38.911 61.567-18.21 14.221-13.24 37.447c3.512 16.411 19.026 26.606 27.833 31.181.145-2.025.473-4.063 1.028-6.11z" fill="#ccf3e2"/><path d="m152.704 124.568c4.209 5.041 8.578 10.142 15.632 10.112 13.112-.053 25.726-6.091 38.312-9.769l-6.502-36.558c-40.455-14.665-49.558 9.813-50.023 33.137.858 1.02 1.717 2.044 2.581 3.078z" fill="#ccf3e2"/><path d="m190.065 139.25c-.045-.327-.076-.659-.075-1.001-2.238-12.669-.747-24.372 6.187-34.664-2.793-14.115-1.403-25.864 6.117-34.268 1.171-16.517 4.597-34.603 9.601-53.789.518-2.903 4.686-2.894 5.191.012 4.408 15.364 7.577 29.835 7.267 41.801 5.747 8.452 7.805 17.772 4.916 28.278 5.048 8.713 7.265 18.413 5.138 29.557 6.664 8.865 5.181 18.584 4.862 23.105-1.998 15.373-47.194 15.489-49.204.969z" fill="#f6e06e"/><path d="m190.065 139.25c-.045-.327-.076-.659-.075-1.001-1.59-8.997-1.285-17.504 1.501-25.367.072 2.393.326 4.83.762 7.312-.003.292.023.576.061.855 1.686 12.395 41.418 12.046 43.259-1.1.059-.746.157-1.659.235-2.699 5.034 8.266 3.755 16.86 3.46 21.031-1.997 15.373-47.193 15.489-49.203.969z" fill="#dda86a"/><path d="m302.087 129.401c-11.291-3.652-20.726-11.319-27.154-21.294-1.826-2.834-4.105-5.456-6.839-7.764-13.057-11.021-32.521-10.772-45.281.592-15.219 13.553-15.492 36.895-1.124 50.814 12.371 11.985 28.727 14.586 42.609 11.15 8.087-2.002 25.792-11.03 39.164-18.218 6.474-3.479 5.617-13.018-1.375-15.28z" fill="#ccf3e2"/><path d="m221.689 151.75c12.37 11.984 28.727 14.586 42.609 11.15 8.087-2.002 25.793-11.03 39.164-18.219 6.473-3.479 5.617-13.018-1.376-15.28-11.291-3.652-20.726-11.319-27.154-21.294-1.826-2.834-4.105-5.456-6.839-7.764-13.058-11.021-32.521-10.771-45.281.592-15.218 13.554-15.491 36.895-1.123 50.815zm14.87-54.464c10.852-6.425 24.843-4.027 32.551 5.569 1.614 2.009 2.855 4.184 3.739 6.449 3.111 7.973 8.726 14.696 16.273 18.797 4.674 2.54 3.857 9.464-1.306 11.092-10.665 3.363-24.712 7.466-30.81 7.825-10.468.617-21.804-3.406-28.875-13.6-8.212-11.839-4.516-28.469 8.428-36.132z" fill="#b1b6e1"/><path d="m266.436 230.898c2.317 10.824-3.876 21.326-13.83 23.457-9.955 2.13-19.903-4.917-22.219-15.742z" fill="#d789b9"/><path d="m418.592 366.357 51.912-22.883c4.41 10.006 5.835 21.076 4.103 31.872-7.607 47.397-93.413 33.555-93.413 33.555s-25.685-65.518 13.617-93.95c9.919-4.629 21.248-6.459 32.771-4.609z" fill="#c2b2eb"/><path d="m390.116 395.33c-5.444-5.441-62.408 17.078-74.397-.278-.262-5.947-2.433-16.081-3.429-19.899-1.479-5.673-3.598-11.654-5.944-17.793l-180.97 38.73c.13 6.816.909 13.737 2.396 20.684 11.555 53.991 34.668 89.009 111.717 84.866l17.388-1.415c90.358-10.463 155.382-82.764 133.239-104.895z" fill="#9781dd"/><path d="m390.116 395.33c-2.603-2.602-16.988 1.189-32.601 3.957-11.474 28.066-58.507 67.84-118.094 75.152l-15.263 1.315c-67.637 3.854-87.926-28.721-98.069-78.945-.41-2.029-.736-4.054-1.024-6.076-.164 2.006-.302 4.005-.417 5.994l.744-.159c.156 6.661.929 13.421 2.381 20.206 11.555 53.991 34.668 89.009 111.717 84.866l17.387-1.414c90.358-10.464 155.382-82.765 133.239-104.896z" fill="#8962de"/><path d="m290.52 119.616c.47-1.372.894-2.803 1.257-4.308 4.748-19.67-9.763-45.087-15.887-46.566-2.763-.667-9.27 2.232-16.014 7.413 4.249 5.198 9.4 16.106 10.697 27.318 6.668 5.359 13.154 10.953 19.947 16.143z" fill="#e1bdfc"/><path d="m308.212 362.366c-.197.061-.402.115-.62.157-9.164 1.753-18.405 3.151-27.414 5.579 2.582 8.5 4.529 14.695 5.347 15.922 4.692 9.97 25.074 23.159 35.186 22.285-.605-3.061-8.002-29.548-8.421-31.155-1.074-4.119-2.487-8.402-4.078-12.788z" fill="#8962de"/><path d="m324.29 193.624s-8.398-23.488-18.641-39.839c-1.405-2.243-3.153-4.694-5.209-7.231-5.281 3.22-10.824 6.01-16.39 8.819 8.745 16.007 19.489 43.394 19.489 43.394 18.421 11.818 22.584 22.1 20.125 41.694-2.028 16.167-9.795 29.445-21.63 39.686-6.741 5.832-19.95 11.547-31.293 15.228-7.614 2.47-11.539 10.858-8.484 18.257 4.928 11.937 10.506 29.992 15.012 44.857 8.986-2.442 18.207-3.842 27.354-5.584-5.489-14.31-12.74-31.606-21.396-43.292 12.05-1.503 33.128-8.573 44.978-18.25 13.482-11.009 22.33-25.283 24.641-42.662 2.8-21.064-7.572-42.373-28.556-55.077z" fill="#e1bdfc"/><path d="m145.793 397.596c-6.935 7.895-17.185 10.231-22.892 5.218-5.707-5.014-4.804-19.26 2.131-27.155 6.936-7.895 27.697 14.042 20.761 21.937z" fill="#a1e8c3"/><path d="m57.217 58.505 6.397 17.988c.274.77.816 1.381 1.5 1.689l15.982 7.201c2.258 1.017 2.258 4.615 0 5.632l-15.982 7.201c-.684.308-1.227.919-1.5 1.689l-6.397 17.988c-.904 2.541-4.1 2.541-5.004 0l-6.397-17.988c-.274-.77-.816-1.381-1.5-1.689l-15.982-7.201c-2.258-1.017-2.258-4.615 0-5.632l15.982-7.201c.684-.308 1.227-.919 1.5-1.689l6.397-17.988c.904-2.542 4.1-2.542 5.004 0z" fill="#c2b2eb"/><ellipse cx="472px" cy="53px" rx="8px" ry="8px" transform="matrix(0.16 -0.987 0.987 0.16 343.922 511.543)" fill="#9781dd"/><circle cx="442" cy="130" r="14" fill="#9781dd"/><path d="m382.915 12.856 8.624 24.25c.369 1.038 1.1 1.861 2.023 2.277l21.545 9.707c3.044 1.371 3.044 6.221 0 7.593l-21.545 9.707c-.923.416-1.653 1.238-2.023 2.277l-8.624 24.25c-1.219 3.426-5.527 3.426-6.746 0l-8.624-24.25c-.369-1.038-1.1-1.861-2.023-2.277l-21.545-9.707c-3.044-1.371-3.044-6.221 0-7.593l21.545-9.707c.922-.416 1.654-1.238 2.023-2.277l8.624-24.25c1.219-3.425 5.527-3.425 6.746 0z" fill="#c2b2eb"/></g><g><g fill="#3c122c"><ellipse cx="286px" cy="206px" rx="9px" ry="9px" transform="matrix(0.457 -0.89 0.89 0.457 -27.865 366.524)"/><path d="m187.007 227.269c1.051 4.909 5.882 8.037 10.791 6.987 4.909-1.051 8.037-5.882 6.987-10.791-1.051-4.909-5.882-8.037-10.791-6.987-4.91 1.051-8.038 5.882-6.987 10.791z"/><path d="m248.986 260.76c-4.863 0-9.646-1.539-13.834-4.506-5.432-3.848-9.215-9.666-10.652-16.381-.696-3.251 1.376-6.45 4.626-7.146l36.05-7.715c1.561-.333 3.191-.035 4.531.833s2.281 2.232 2.615 3.794c1.437 6.715.366 13.572-3.015 19.306-3.478 5.898-8.963 9.91-15.444 11.297-1.62.347-3.253.518-4.877.518zm-10.283-17.771c.936 1.337 2.083 2.502 3.409 3.441 2.807 1.988 6.086 2.712 9.234 2.038 3.149-.674 5.845-2.676 7.592-5.639.825-1.4 1.396-2.932 1.702-4.535z"/><path d="m235.984 428.741c-3.324 0-6.02-2.695-6.02-6.02v-12.14c0-3.324 2.695-6.02 6.02-6.02 3.324 0 6.02 2.695 6.02 6.02v12.14c-.001 3.325-2.696 6.02-6.02 6.02z"/><path d="m283.023 416.402c-3.324 0-6.02-2.695-6.02-6.02v-12.139c0-3.324 2.695-6.02 6.02-6.02 3.324 0 6.02 2.695 6.02 6.02v12.139c-.001 3.325-2.696 6.02-6.02 6.02z"/><path d="m267.6 459.586c-3.324 0-6.02-2.695-6.02-6.02v-12.139c0-3.324 2.695-6.02 6.02-6.02 3.324 0 6.02 2.695 6.02 6.02v12.139c0 3.324-2.695 6.02-6.02 6.02z"/><path d="m479.684 339.427c-2.236-5.071-8.16-7.368-13.227-5.133l-35.037 15.444 6.068-37.806c.878-5.47-2.845-10.617-8.316-11.495-13.133-2.109-26.483-.234-38.604 5.424-.575.268-1.123.59-1.637.963-28.669 20.739-28.249 56.651-23.846 80.823-9.087 1.782-19.193 3.709-27.798 4.024-6.883.249-10.286-.622-11.918-1.369-.78-6.519-2.489-14.295-3.37-17.678-1.969-7.55-4.958-15.536-8.048-23.415-.339-.883-.686-1.764-1.03-2.645 15.216-5.733 28.38-10.993 38.235-16.824 16.347-9.672 22.491-21.04 18.261-33.787-1.951-5.879-5.845-10.354-11.263-12.942-2.143-1.024-4.463-1.722-6.953-2.143 6.166-9.319 10.111-19.716 11.591-30.845 3.256-24.483-8.288-48.336-30.27-63.049-2.761-7.246-9.883-24.968-18.369-38.516-.744-1.188-1.545-2.377-2.388-3.562 1.595-2.571 2.346-5.639 2.056-8.858-.527-5.826-4.313-10.564-9.88-12.365-1.265-.409-2.509-.883-3.731-1.413.493-1.487.939-3.016 1.321-4.598 5.493-22.758-9.634-55.376-23.287-58.673-9.634-2.324-26.578 8.023-37.649 22.312 1.773-9.318 1.557-19.056-5.056-28.781-.027-.04-.059-.075-.087-.115-.748-13.732-4.825-29.617-8.507-42.48-1.339-5.779-6.471-9.911-12.468-9.925h-.031c-5.582 0-10.426 3.571-12.16 8.728-8.586 17.483-14.812 32.962-11.533 56.164-2.02 3.111-3.379 6.345-4.26 9.599-13.488-1.931-24.402.815-32.555 8.246-5.847 5.329-9.412 12.478-11.47 20.254-10.723-4.026-21.121-4.976-26.775-1.571-8.893 5.358-13.75 26.137-10.898 44.813-1.779 1.147-3.443 2.449-4.976 3.927-13.143 12.678-12.398 32.822-10.625 44.252-12.344 7.245-33.887 26.03-34.267 69.005-.272 30.793 12.133 48.518 22.587 57.965 3.419 3.089 6.843 5.511 9.994 7.395-5.28 8.178-9.993 20.405-6.689 35.842 3.769 17.61 17.918 29.097 28.404 35.391.896 2.732 2.455 5.421 4.91 7.957.73.754 1.497 1.414 2.283 2.028.405 2.963.913 5.925 1.545 8.879 7.131 33.316 17.752 54.792 34.442 69.631 17.732 15.767 42.438 23.496 75.289 23.495 3.99 0 8.104-.114 12.335-.341.091-.005.183-.011.274-.019l17.388-1.414c.114-.009.227-.021.341-.034 75.632-8.758 131.528-57.169 143.671-89.476 1.996.063 4.07.102 6.223.102 5.72 0 11.922-.256 18.219-.948 43.312-4.764 55.647-25.977 58.369-42.935 2.044-12.736.374-25.706-4.828-37.508zm-174.545-11.38c-1.87-4.066-3.812-8.016-5.858-11.747 8.325-2.447 17.69-6.104 25.846-10.783l4.931 12.442c-7.634 3.45-16.487 6.904-24.919 10.088zm35.726-15.499-4.404-11.111c5.88-1.226 10.527-1.523 13.043-.322.334.16.576.275.868 1.157.986 2.97-2.958 6.526-9.507 10.276zm-39.036-175.426c.051.571-.038 1.623-1.217 2.257-18.52 9.956-31.93 16.234-37.761 17.677-13.482 3.335-27.306-.263-36.974-9.63-5.781-5.601-8.872-13.119-8.702-21.171.168-8.043 3.593-15.439 9.641-20.825 5.366-4.779 12.171-7.178 18.982-7.178 6.557 0 13.123 2.225 18.413 6.69 2.214 1.869 4.12 4.031 5.662 6.424 7.316 11.357 18.099 19.795 30.361 23.761 1.268.412 1.543 1.427 1.595 1.995zm-95.344.063c.587 2.23 1.36 4.406 2.313 6.502-4.244-.456-7.506-1.439-9.663-2.511zm66.829-57.774c3.927 4.975 9.981 17.864 9.338 29.152-.936-1.191-1.828-2.426-2.659-3.716-2.191-3.399-4.888-6.462-8.016-9.103-3.513-2.965-7.424-5.227-11.542-6.804 4.582-4.586 9.613-8.036 12.879-9.529zm-60.575-44.064c1.618 7.549 2.78 15.153 2.755 21.486l-5.15 3.066c-1.029-9.339 0-17.008 2.395-24.552zm-4.866 40.034 12.976-7.724c1.16 3.695.723 8.112-1.253 15.3-.143.518-.229 1.036-.287 1.554l-13.355 7.892c-1.66-9.375-.117-14.112 1.919-17.022zm-8.737 34.981c.211-.094.421-.194.625-.314l14.064-8.312c-5.078 6.422-8.065 14.149-8.602 22.434l-10.131 5.5c-.285-7.208 1.05-13.595 4.044-19.308zm-31.674-12.804c4.414-4.017 11.465-4.164 18.511-2.812.337 2.035.743 3.972 1.164 5.77.317 1.355.901 2.576 1.674 3.632-2.29 4.224-3.895 8.744-4.827 13.536l-1.203.258c-4.324.925-8.56 2.186-12.669 3.767-2.663-3.162-5.833-6.076-9.298-8.685.978-6.58 3.031-12.176 6.648-15.466zm-40.939 21.837c7.186.856 23.69 7.122 30.237 17.991.335.557.646 1.112.945 1.666 2.593 4.801 8.55 6.646 13.404 4.159 4.067-2.085 8.359-3.723 12.794-4.9.029.18.052.359.083.54.013.268.049.552.08.832.007.1.017.199.029.298.001.009.001.017.002.025.003.023.003.045.006.068 0 .002.001.005.001.008v.006c.001.003.002.005.002.008.007.053.02.103.028.156.013.079.025.158.042.236 1.933 11.443 17.164 15.509 29.861 15.509.082 0 .165-.001.247-.001 1-.004 2.019-.044 3.044-.1.059.057.113.118.172.175 9.576 9.278 22.217 14.249 35.393 14.249 4.256 0 8.569-.519 12.851-1.579 5.565-1.378 15.388-5.682 29.251-12.804.937 1.294 1.658 2.382 2.151 3.171 9.526 15.208 17.616 37.668 17.696 37.891.777 2.172 2.278 4.01 4.251 5.204 17.018 10.304 26.141 27.612 23.805 45.172-1.884 14.168-8.963 26.352-21.041 36.215-10.46 8.542-29.878 14.818-39.873 16.065-3.539.441-6.577 2.728-7.981 6.006s-.962 7.055 1.16 9.921c6.293 8.496 11.979 20.685 16.987 33.04.417 1.059.835 2.119 1.252 3.173.254.643.504 1.277.756 1.914l-114.726 24.256c4.068-4.173 8.277-8.572 12.642-13.138l4.392-4.591c2.3-2.4 2.219-6.211-.181-8.511-2.401-2.301-6.214-2.218-8.511.182l-4.401 4.599c-9.873 10.325-19.502 20.394-28.206 28.42l-19.61-18.409c7.529-8.969 17.177-19.021 27.354-29.621l4.403-4.59c2.3-2.4 2.219-6.211-.181-8.511-2.401-2.301-6.214-2.218-8.511.182l-4.395 4.581c-2.056 2.142-4.073 4.243-6.049 6.31 4.048-9.459 8.914-17.796 14.531-24.749 2.669-3.304 2.969-7.93.749-11.551-7.262-11.839-12.044-24.761-15.993-43.206-.013-.06-.026-.12-.04-.18l-9.717-41.64c-2.66-12.515-1.553-25.374 3.204-37.19 1.781-4.425.201-9.493-3.781-12.12-3.296-2.175-6.268-5.437-8.833-9.694-6.549-10.871-4.377-28.39-1.775-35.143zm1.507 282.551c-.009 0-.018 0-.027 0-2.034 0-3.645-.726-5.218-2.352-4.85-5.01-1.957-13.234 5.341-23.54l17.879 16.785c-7.096 5.623-13.254 9.093-17.975 9.107zm-17.986-68.967c3.045-2.378 4.497-6.284 3.665-10.058-.833-3.773-3.715-6.724-7.479-7.6-1.291-.326-31.623-8.474-31.239-51.728.382-43.292 26.852-53.364 28.671-54.003 5.243-1.548 8.062-6.973 6.606-12.249-1.539-5.581-4.154-22.233 1.877-30.841 2.304 3.566 4.855 6.739 7.664 9.443-4.098 13.549-4.698 27.887-1.701 41.889.013.06.027.12.04.18l9.718 41.643c3.815 17.799 8.428 31.205 15.031 43.413-14.514 20.466-21.865 45.124-25.472 67.343-.223.326-.457.655-.672.979-1.008 1.512-2.556 3.842-4.058 6.688-5.474-4.369-10.675-10.276-12.256-17.66-3.546-16.572 9.129-27.052 9.605-27.439zm273.125 80.005c-9.459 27.178-62.44 69.686-127.279 77.257l-17.076 1.389c-4.016.214-7.865.32-11.559.32-60.799-.002-79.271-28.671-89.673-77.274-.18-.841-.335-1.683-.488-2.525 7.988-3.021 16.729-9.62 26.375-18.501l135.066-28.557c1.603 4.384 3.004 8.596 4.046 12.594 1.006 3.858 2.907 13.109 3.115 17.81.083 1.884.696 3.708 1.768 5.26 11.35 16.432 39.839 10.835 62.728 6.338 4.584-.901 10.452-2.053 14.016-2.461.661 2.647-.278 6.164-1.039 8.35zm81.532-39.227c-3.844 23.951-37.844 27.349-60.814 26.847-1.279-5.943-4.286-9.98-6.678-12.37-3.067-3.064-6.892-4.021-12.3-3.763-3.544-18.932-4.336-46.118 15.021-60.826 5.108-2.259 10.507-3.569 15.982-3.899l-7.226 45.021c-.582 3.629.866 7.286 3.776 9.532 2.91 2.247 6.815 2.721 10.177 1.238l41.737-18.398c1.098 5.445 1.216 11.063.325 16.618z"/></g><path d="m196.54 479.077c-1.766 0-3.554-.466-5.176-1.446-9.726-5.873-18.116-13.959-24.262-23.383-3.027-4.641-1.717-10.857 2.925-13.884 4.643-3.027 10.858-1.717 13.884 2.924 4.505 6.909 10.669 12.844 17.825 17.165 4.743 2.864 6.266 9.031 3.403 13.774-1.886 3.122-5.2 4.85-8.599 4.85z" fill="#ffffff"/><path d="m165.609 433.407c-4.854 0-9.12-3.53-9.898-8.476-.215-1.364-.374-2.728-.474-4.053-.417-5.525 3.723-10.343 9.248-10.761 5.547-.408 10.342 3.723 10.761 9.248.06.791.157 1.615.288 2.45.86 5.473-2.88 10.608-8.353 11.469-.529.083-1.054.123-1.572.123z" fill="#ffffff"/><path d="m261.228 129.998c-2.964 0-5.897-1.307-7.877-3.812-4.448-5.626-8.699-6.091-9.711-6.304-1.013-.212-9.819-1.383-7.663-12.32 1.714-8.694 9.891-7.68 9.891-7.68 1.399.086 13.217 1.201 23.224 13.86 3.436 4.347 2.698 10.656-1.649 14.092-1.842 1.457-4.037 2.164-6.215 2.164z" fill="#ffffff"/></g></g><g transform="matrix(0.09765625 0 0 0.09765625 150 325)" id="L1_75"><g><path d="m317.96 403.892s82.934-.813 90.981-65.472c7.397-59.434-55.024-62.415-55.024-62.415s5.131-80.905-70.525-37.484c0 0 4.825-108.699-67.446-63.53l6.698 192.313z" fill="#c2b2eb"/><path d="m374.875 387.631s39.8-23.281 26.748-81.734c-2.347-10.512-12.954-24.344-16.76-31.625 12.41 62.782-16.366 99.655-57.912 96.589-4.113-.304-8.179 30.593 4.017 31.406 14.806.986 43.907-14.636 43.907-14.636z" fill="#ae85ea"/><path d="m397.703 282.323c3.19 6.17 5.557 12.781 7.122 19.536 5.83 25.171.538 50.985-15.405 71.418-15.492 19.857-39.041 29.973-63.838 31.231-2.019.103-4.511-1.631-4.845-3.689-.172-1.057-.273-2.105-.344-3.148 2.62-9.042 4.402-18.868 5.257-30.858.11-.599.219-1.198.313-1.801 2.109-13.491 1.15-27.817.852-41.42-.019-.854-.039-1.709-.058-2.562l.387-20.944c0-17.526-5.322-33.808-14.439-47.319 4.183-4.257 7.721-9.997 10.218-17.253 7.605-22.1-6.308-52.911-13.19-55.279s-36.808 13.357-44.413 35.457c-.3.874-.566 1.736-.817 2.592-7.038-1.895-14.436-2.911-22.072-2.911h-52.278c-3.904 0-7.655.297-11.259.844-.535-4.804-2.011-9.935-4.576-15.277-10.011-20.849-41.231-32.871-47.723-29.753s-16.63 34.998-6.619 55.847c3.312 6.898 7.487 12.162 12.13 15.87-9.207 10.438-15.308 21.865-18.431 30.453-7.536 20.726-11.305 48.987-11.305 48.987-20.416 19.219-26.911 45.517-18.742 68.39 6.741 18.873 20.044 32.71 37.746 41.79 5.312 2.724 11.753 4.851 18.484 6.425h-14.246c-15.937 0-28.855 12.919-28.855 28.855v5.289c0 15.936 12.919 28.855 28.855 28.855h52.341c8.514 0 16.166-3.69 21.447-9.555 9.743 5.951 21.118 9.24 32.924 9.24h2.294c1.39.206 2.812.315 4.259.315h52.341c1.448 0 2.869-.109 4.259-.315h82.283c1.501.202 3.03.315 4.586.315h38.78c3.212 0 6.317-.453 9.265-1.282 18.287-3.22 34.503-14.359 43.673-30.896 10.176-18.351 15.877-38.887 15.877-60.575-.003-55.762-37.629-103.964-92.238-126.872z" fill="#ffffff"/><path d="m320.688 395.919c5.318-15.068 5.552-22.246 5.552-46.86l.903-48.973c0-17.526-5.322-33.808-14.438-47.319 4.183-4.257 7.721-9.997 10.218-17.253 7.605-22.1-6.308-52.911-13.19-55.279-3.247-1.118-4.174-.415-12.918 5.295 5.417 10.165 9.137 23.249 7.766 39.694-.863 10.355-14.254 21.311-17.757 25.362 7.633 12.855 13.476 56.1 13.476 72.775l-.229 12.434c0 17.067-4.679 31.192-8.644 47.095-2.312 9.274-3.604 17.608 3.328 24.189 9.321 8.848 23.476 1.373 25.933-11.16z" fill="#e1bdfc"/><path d="m239.387 229.465c-.028-.377-.072-.755-.155-1.137-.529-14.696-4.995-27.419-15.208-37.264-.254-16.445-4.618-29.244-15.033-36.838-5.26-18.181-13.415-37.577-23.598-57.823-1.273-3.121-5.93-2.113-5.799 1.255-1.252 18.226-1.333 35.159 1.877 48.459-4.402 10.822-4.473 21.731 1.27 32.782-3.559 10.946-3.715 22.318 1.327 34.265-5.327 11.502-1.345 22.01.093 26.988 5.909 16.704 56.453 6.023 55.226-10.687z" fill="#c1e5ef"/><path d="m239.387 229.465c-.028-.377-.072-.755-.155-1.137-.376-10.437-2.751-19.871-7.746-27.994.491 2.692.791 5.477.897 8.355.073.326.112.649.137.97 1.08 14.257-43.412 23.371-48.614 9.118-.244-.82-.572-1.817-.908-2.961-3.649 10.443-.164 19.743 1.163 24.335 5.909 16.705 56.453 6.024 55.226-10.686z" fill="#a6aaed"/><path d="m111.824 245.253c11.746-6.783 20.459-17.609 25.256-30.296 1.363-3.604 3.283-7.081 5.787-10.314 11.958-15.441 33.772-19.819 50.753-10.17 20.252 11.508 26.141 37.532 13.411 56.527-10.96 16.354-28.619 23.175-44.958 22.654-9.518-.303-31.467-6.159-48.132-10.995-8.067-2.339-9.392-13.205-2.117-17.406z" fill="#c2b2eb"/><path d="m193.62 194.474c-16.98-9.648-38.794-5.271-50.753 10.17-2.504 3.233-4.424 6.71-5.787 10.314-4.798 12.687-13.51 23.513-25.256 30.296-7.274 4.2-5.95 15.067 2.118 17.408 16.665 4.836 38.614 10.691 48.132 10.995 16.338.52 33.998-6.301 44.958-22.655 12.729-18.996 6.84-45.02-13.412-56.528zm1.825 37.58c-5.465 13.085-17.173 20.292-29.02 22.107-6.902 1.057-23.583-.169-36.308-1.376-6.159-.585-8.729-8.128-4.113-12.085 7.454-6.389 12.121-15.247 13.692-24.902.446-2.743 1.313-5.47 2.636-8.102 6.32-12.57 21.384-18.597 35.051-14.011 16.3 5.467 24.409 23.17 18.062 38.369z" fill="#ae85ea"/><path d="m155.234 234.984c-1.493 0-3.007-.334-4.437-1.039-4.978-2.455-7.023-8.48-4.569-13.458 7.885-15.991 21.096-20.08 22.576-20.494 0 0 9.613-3.632 12.756 5.685 3.324 9.854-7.275 13.657-7.139 13.612-.253.084-6.25 2.144-10.167 10.086-1.748 3.549-5.313 5.607-9.02 5.608z" fill="#ffffff"/><g fill="#9781dd"><path d="m245.174 501.95h6.106c2.955 0 5.35-2.147 5.35-4.794v-53.412c0-2.648-2.395-4.794-5.35-4.794h-6.106c-19.415 0-35.154 14.103-35.154 31.5 0 17.397 15.739 31.5 35.154 31.5z"/><path d="m382.397 501.95h5.942c2.875 0 5.206-2.331 5.206-5.206v-58.001c0-2.875-2.331-5.206-5.206-5.206h-5.942c-18.892 0-34.206 15.315-34.206 34.207 0 18.891 15.314 34.206 34.206 34.206z"/><path d="m171.654 438.95h-6.106c-2.955 0-5.35 2.146-5.35 4.794v53.412c0 2.648 2.396 4.794 5.35 4.794h6.106c19.415 0 35.154-14.103 35.154-31.5 0-17.397-15.739-31.5-35.154-31.5z"/></g><path d="m166.019 495.304 39.301.982c-.557-8.869-1.08-17.739-1.302-26.622l-38.631 9.266c.042 5.467.315 10.921.632 16.374z" fill="#8962de"/><path d="m155.373 481.333-51.747 12.412 52.328 1.307c-.264-4.57-.492-9.141-.581-13.719z" fill="#e1bdfc"/><path d="m251.147 469.37h-37.087c.22 9.066.757 18.117 1.326 27.167l35.761.894z" fill="#8962de"/><path d="m344.158 469.37h-82.961v28.312l91.545 2.287c-3.378-10.052-6.395-20.228-8.584-30.599z" fill="#e1bdfc"/><path d="m381.689 469.37h-27.259c2.356 10.457 5.518 20.72 9 30.866l24.593.614v-31.74c-2.204.171-4.33.26-6.334.26z" fill="#8962de"/><path d="m414.161 290.297c-1.298 3.018-2.513 6.076-3.622 9.181 21.677 22.989 37.05 53.65 39.546 82.632 1.678 19.486-1.371 45.004-9.505 60.885-7.102 13.867-25.584 21.697-42.507 24.798v33.309l21.312.533c22.633 0 43.7-12.069 54.676-31.863 10.176-18.351 15.877-38.887 15.877-60.575 0-49.961-30.217-93.832-75.777-118.9z" fill="#e1bdfc"/><path d="m469.927 137.738 8.256 23.213c.353.994 1.053 1.781 1.936 2.179l20.624 9.292c2.914 1.313 2.914 5.955 0 7.268l-20.624 9.292c-.883.398-1.583 1.185-1.936 2.179l-8.256 23.213c-1.166 3.279-5.291 3.279-6.457 0l-8.255-23.213c-.354-.994-1.053-1.781-1.936-2.179l-20.624-9.292c-2.914-1.313-2.914-5.955 0-7.268l20.624-9.292c.883-.398 1.583-1.185 1.936-2.179l8.255-23.213c1.166-3.28 5.29-3.28 6.457 0z" fill="#c1e5ef"/><path d="m324.553 68.397 6.124 17.219c.262.737.781 1.321 1.436 1.617l15.299 6.893c2.161.974 2.161 4.417 0 5.391l-15.299 6.893c-.655.295-1.174.879-1.436 1.617l-6.124 17.219c-.865 2.433-3.925 2.433-4.79 0l-6.124-17.219c-.262-.737-.781-1.322-1.436-1.617l-15.298-6.893c-2.161-.974-2.161-4.417 0-5.391l15.298-6.893c.655-.295 1.174-.879 1.436-1.617l6.124-17.219c.866-2.433 3.925-2.433 4.79 0z" fill="#c1e5ef"/><ellipse cx="423px" cy="72px" rx="12px" ry="12px" transform="matrix(0.973 -0.23 0.23 0.973 -5.408 99.212)" fill="#96b4eb"/><path d="m258.101 40.981c0 5.254-4.259 9.513-9.513 9.513s-9.513-4.259-9.513-9.513 4.259-9.513 9.513-9.513c5.253.001 9.513 4.26 9.513 9.513z" fill="#96b4eb"/></g><g fill="#3c122c"><path d="m448.431 301.81c-22.531-19.374-50.127-32.739-80.17-39.231-1.62-11.893-6.86-32.172-23.797-41.996-2.96-1.717-6.116-3.002-9.443-3.899-.517-7.778-2.234-14.652-3.674-19.227-2.167-6.883-8.293-23.267-18.343-26.725-9.381-3.232-23.011 4.533-29.613 8.907-4.104-8.582-9.84-16.079-17.854-20.757-11.168-6.519-24.543-6.578-39.885-.251-1.913-3.7-4.48-7.173-7.909-10.235-5.157-16.978-12.78-35.427-23.253-56.275-2.538-5.577-8.613-8.651-14.648-7.348-5.973 1.293-10.204 6.507-10.298 12.553-1.423 20.956-.966 35.985 1.481 48.059-4.376 12.742-3.592 25.229 2.324 37.178-6.76-6.937-14.441-11.688-19.511-14.371-6.326-3.348-22.069-10.636-31.594-6.066-9.525 4.574-13.676 21.419-15.019 28.448-1.69 8.85-3.459 25.919 3.691 40.81.894 1.862 1.861 3.629 2.883 5.321-1.599 1.209-3.261 2.325-4.991 3.324-5.491 3.171-8.429 9.05-7.666 15.343.471 3.888 2.277 7.282 5.022 9.729-.703 1.616-1.356 3.227-1.936 4.821-6.314 17.365-10.035 39.222-11.318 47.623-20.91 21.342-28.104 50.371-18.748 76.569 5.915 16.561 16.732 30.462 31.6 40.76-11.393 6.721-19.058 19.117-19.058 33.275v5.235c0 21.292 17.323 38.614 38.614 38.614h52.924c8.462 0 16.292-2.744 22.662-7.378 9.63 4.571 20.332 7.062 31.417 7.062h187.062c5.268 0 10.448-.571 15.471-1.651 6.404-1.231 11.837-3.273 16.663-5.755 13.063-6.372 24.099-16.588 31.332-29.633 11.372-20.506 17.138-42.527 17.138-65.449.001-40.659-18.309-78.796-51.556-107.384zm-99.548-30.053c-.008 4.961 3.653 9.193 8.555 9.953.234.036 23.625 3.868 35.578 23.175 11.854 19.149 1.104 48.923-3.936 57.029-6.767 10.888-16.793 19.234-29.799 24.809-7.657 3.281-18.808 5.46-27.414 6.767 3.048-12.982 4.416-27.003 4.421-44.336l.901-48.883c.001-.062.002-.124.002-.185 0-16.42-4.187-32.344-12.17-46.49 3.017-4.315 5.495-9.271 7.403-14.812.179-.521.322-1.045.482-1.567.484.224.962.46 1.425.727 11.853 6.828 14.523 26.743 14.552 33.813zm-93.489-95.522c5.413 3.153 9.266 9.544 11.983 17.157-3.402 3.806-6.639 8.232-9.134 13.252-5.212-.878-10.503-1.32-15.812-1.32h-1.751c-2.378-5.909-5.654-11.21-9.839-15.856.068-.441.118-.887.127-1.345.06-3.129.024-6.433-.232-9.795 10.383-4.858 18.662-5.585 24.658-2.093zm-34.668 21.743h.033l1.076.36c.323.108.649.186.974.238 5.183 6.141 8.396 13.602 9.73 22.585l-14.403-4.244c-2.965-10.894-9.675-20.076-19.148-26.223l16.028 5.363c1.608 1.169 3.573 1.88 5.71 1.921zm-.986 31.984 11.682 3.442c-2.34 2.294-6.753 4.877-13.083 6.761.844-3.335 1.321-6.757 1.401-10.203zm-23.949-84.098-4.434-1.499c-.028-.16-.057-.32-.093-.479-.01-.043-.014-.085-.024-.127-1.127-4.671-1.777-9.93-2.109-15.346 2.517 6.038 4.728 11.84 6.66 17.451zm-6.942 10.383 12.197 4.124c.578.749 1.264 1.414 2.024 1.975 4.929 3.594 7.295 9.456 7.738 19.584l-18.543-6.205c-.165-.494-.359-.984-.607-1.462-3.097-5.959-4.027-11.804-2.809-18.016zm-57.592 24.65c4.282.714 12.182 3.87 19.518 8.879-4.787 2.837-9.112 6.576-12.675 11.176-2.813 3.633-5.053 7.627-6.66 11.873-.972 2.569-2.129 5.035-3.437 7.391-5.03-13.761-.36-32.86 3.254-39.319zm-16.418 69.578c12.587-7.268 22.489-19.124 27.881-33.384 1.182-3.124 2.835-6.07 4.915-8.755 10.133-13.086 28.622-16.793 43.006-8.619 8.256 4.691 13.996 12.332 16.164 21.515 2.139 9.058.395 18.685-4.784 26.412-8.731 13.029-23.598 20.501-39.757 19.984-6.927-.22-23.492-4.041-46.642-10.758-2.011-.583-2.423-2.255-2.507-2.946-.084-.69-.083-2.405 1.724-3.449zm-8.033 222.911v-5.235c0-10.208 8.305-18.514 18.514-18.514h29.341v42.263h-29.341c-10.209 0-18.514-8.305-18.514-18.514zm59.915 18.514v-42.263h11.523c10.208 0 18.513 8.305 18.513 18.514v5.235c0 10.209-8.305 18.514-18.513 18.514zm71.864-.637c-10.209 0-18.514-8.305-18.514-18.514v-5.235c0-10.208 8.305-18.514 18.514-18.514h11.523v42.263zm119.656-23.866c0-13.129 10.681-23.81 23.811-23.81h4.984v47.621h-4.984c-13.13 0-23.811-10.682-23.811-23.811zm107.031-2.499c-8.858 15.666-25.695 26.34-43.856 26.31h-22.321v-47.621h1.254c5.55 0 10.05-4.499 10.05-10.05s-4.5-10.05-10.05-10.05h-18.298c-24.212 0-43.911 19.698-43.911 43.91 0 8.933 2.687 17.246 7.287 24.187h-20.229c3.13-5.576 4.924-11.999 4.924-18.835 0-5.551-4.5-10.05-10.05-10.05s-10.05 4.499-10.05 10.05c0 10.208-8.305 18.514-18.514 18.514h-29.34v-42.263h29.34c5.55 0 10.05-4.5 10.05-10.05 0-5.551-4.5-10.05-10.05-10.05h-52.923c-12.345 0-23.348 5.83-30.421 14.874-7.087-8.681-17.865-14.237-29.919-14.237h-34.438c-6.522-1.41-12.808-3.37-17.845-5.954-16.191-8.305-27.25-20.494-32.869-36.228-7.003-19.606-.808-41.713 16.165-57.692 1.681-1.583 2.767-3.698 3.073-5.987.036-.272 3.725-27.456 10.788-46.883.413-1.135 1.055-2.763 1.945-4.734 17.812 4.849 30.172 7.411 36.817 7.623.656.021 1.306.031 1.959.031 19.586 0 37.495-9.382 48.2-25.355.12-.179.228-.365.345-.546 1.275-.19 2.535-.409 3.762-.667 13.937-2.922 29.84-10.869 29.266-23.688-.091-1.332-.247-2.658-.303-3.983 5.682.202 11.315 1.043 16.78 2.514 5.278 1.422 10.726-1.638 12.259-6.887.207-.708.425-1.42.673-2.139 5.083-14.772 23.801-26.402 31.411-28.56 4.671 6.384 12.268 27.069 7.186 41.84-1.919 5.574-4.572 10.109-7.884 13.48-3.349 3.409-3.836 8.704-1.163 12.665 8.304 12.309 12.702 26.696 12.72 41.609l-.901 48.877c-.001.061-.002.123-.002.185 0 21.727-2.279 37.455-7.62 52.59-1.847 5.234.898 10.975 6.132 12.822 2.057.698 4.107.645 6.208.632 1.188-.103 29.274-2.612 46.291-9.905 16.863-7.227 29.969-18.221 38.951-32.672 7.49-12.047 18.446-44.699 7.731-70.784 39.871 23.703 66.005 63.025 66.005 107.455.001 19.472-4.916 38.213-14.615 55.702z"/><path d="m136.262 333.509c-3.037 0-5.649-2.288-5.987-5.377-.361-3.31 2.031-6.287 5.341-6.648l20.154-2.198c3.304-.357 6.288 2.03 6.648 5.341.361 3.31-2.031 6.287-5.341 6.648l-20.154 2.198c-.221.024-.442.036-.661.036z"/><path d="m264.37 333.509c-.219 0-.44-.012-.661-.036l-20.154-2.198c-3.311-.361-5.702-3.338-5.341-6.648.361-3.311 3.356-5.698 6.648-5.341l20.154 2.198c3.31.361 5.702 3.338 5.341 6.648-.337 3.089-2.95 5.377-5.987 5.377z"/><path d="m68.698 217.861h-26.211c-3.687 0-7.079-2.019-8.836-5.261s-1.598-7.186.416-10.275l15.477-23.755h-6.252c-5.55 0-10.05-4.499-10.05-10.05s4.5-10.05 10.05-10.05h24.795c3.687 0 7.079 2.019 8.836 5.261s1.598 7.186-.416 10.275l-15.477 23.756h7.668c5.55 0 10.05 4.499 10.05 10.05 0 5.55-4.5 10.049-10.05 10.049z"/><path d="m119.099 136.632h-30.838c-3.687 0-7.079-2.019-8.836-5.262-1.757-3.242-1.598-7.186.416-10.275l19.996-30.69h-10.628c-5.55 0-10.05-4.499-10.05-10.05 0-5.55 4.5-10.05 10.05-10.05h29.172c3.687 0 7.079 2.019 8.836 5.262 1.757 3.242 1.598 7.186-.415 10.275l-19.997 30.69h12.295c5.55 0 10.05 4.499 10.05 10.05-.001 5.55-4.501 10.05-10.051 10.05z"/><path d="m55.942 75.293h-36.82c-3.687 0-7.079-2.019-8.836-5.262-1.757-3.242-1.598-7.186.416-10.275l25.839-39.656h-16.286c-5.55 0-10.05-4.499-10.05-10.05s4.5-10.05 10.05-10.05h34.83c3.687 0 7.079 2.019 8.836 5.261s1.598 7.186-.416 10.275l-25.839 39.657h18.277c5.55 0 10.05 4.5 10.05 10.05-.001 5.55-4.501 10.05-10.051 10.05z"/><path d="m194.596 375.879c-10.097 0-18.311-8.696-18.311-19.384 0-3.33 2.7-6.03 6.03-6.03s6.03 2.7 6.03 6.03c0 4.039 2.804 7.324 6.251 7.324s6.252-3.285 6.252-7.324c0-3.33 2.7-6.03 6.03-6.03s6.03 2.7 6.03 6.03c0 10.688-8.215 19.384-18.312 19.384z"/></g></g><g transform="matrix(0.13671875 0 0 0.13671875 140 140)" id="L1_76"><g><path d="m413.077 501.563s36.069-22.953 36.069-55.743-28.691-46.726-28.691-46.726 50.503-23.755 34.74-94.354-66.457-75.384-66.457-75.384 6.197-97.715-85.179-45.273c0 0 5.827-131.284-81.459-76.73l8.09 232.272z" fill="#ccf3e2"/><path d="m420.455 399.094s50.503-23.755 34.74-94.354c-2.835-12.697-15.646-29.402-20.243-38.196 20.003 101.19-48.732 148.444-124.036 94.319-4.041-2.905-14.679 33.584-19.531 32.948l121.692 107.752s36.069-22.953 36.069-55.743-28.691-46.726-28.691-46.726z" fill="#b1b6e1"/><path d="m413.107 501.828c-11.974-43.585-33.516-89.022-67.692-116.682 6.423-18.198 9.895-37.828 9.895-67.556l1.091-59.148c0-21.167-6.428-40.832-17.438-57.151 5.052-5.141 9.325-12.074 12.341-20.838 9.185-26.692-7.619-63.905-15.93-66.764-8.312-2.86-44.456 16.133-53.641 42.825-.363 1.055-.684 2.096-.987 3.131-8.5-2.288-17.436-3.516-26.659-3.516h-63.141c-4.715 0-9.245.359-13.598 1.02-.646-5.802-2.429-12-5.527-18.451-12.092-25.181-49.798-39.7-57.639-35.935-7.841 3.766-20.086 42.27-7.994 67.451 4.001 8.331 9.042 14.689 14.65 19.168-11.12 12.607-18.489 26.408-22.26 36.78-9.102 25.032-13.654 59.166-13.654 59.166-24.658 23.212-32.502 54.974-22.636 82.6 8.141 22.794 24.208 39.507 45.589 50.473 18.793 9.639 49.289 13.094 65.99 11.642-9.281 20.417-14.182 49.808-17.475 71.787h256.715z" fill="#ffffff"/><path d="m345.415 385.145c6.423-18.198 9.895-37.828 9.895-67.556l1.091-59.148c0-21.167-6.428-40.832-17.438-57.151 5.052-5.141 9.325-12.074 12.341-20.838 9.185-26.692-7.619-63.905-15.93-66.764-3.922-1.35-5.042-.501-15.602 6.395 6.543 12.277 11.035 28.079 9.38 47.942-1.042 12.507-17.216 25.739-21.446 30.631 9.219 15.526 16.276 67.756 16.276 87.896l-.276 15.017c0 20.613-8.841 48.633-13.629 67.841-2.793 11.201-4.352 21.267 4.019 29.215 11.256 10.687 19.974 20.971 27.471 39.893 8.346 21.063-7.251 43.907-29.908 43.907h-152.135c-1.201 6.797-2.23 13.383-3.132 19.404h256.715c-11.974-43.587-33.516-89.024-67.692-116.684z" fill="#e1bdfc"/><path d="m250.41 173.146c-.033-.455-.088-.912-.187-1.373-.639-17.749-6.032-33.117-18.367-45.007-.307-19.862-5.578-35.321-18.157-44.492-6.352-21.958-16.203-45.384-28.501-69.838-1.538-3.769-7.162-2.553-7.004 1.516-1.512 22.013-1.609 42.465 2.267 58.528-5.316 13.071-5.402 26.246 1.534 39.593-4.298 13.22-4.487 26.955 1.603 41.385-6.434 13.892-1.625 26.584.112 32.596 7.137 20.175 68.183 7.274 66.7-12.908z" fill="#f6e06e"/><path d="m250.41 173.146c-.033-.455-.088-.912-.187-1.373-.454-12.605-3.322-24-9.355-33.811.594 3.251.955 6.615 1.084 10.092.088.394.136.784.165 1.172 1.305 17.22-52.432 28.227-58.715 11.012-.295-.99-.691-2.195-1.097-3.576-4.407 12.613-.198 23.845 1.405 29.391 7.137 20.176 68.183 7.275 66.7-12.907z" fill="#dda86a"/><path d="m96.342 192.215c14.187-8.192 24.71-21.267 30.504-36.591 1.646-4.353 3.966-8.552 6.99-12.456 14.443-18.65 40.79-23.937 61.298-12.283 24.46 13.9 31.573 45.33 16.198 68.272-13.237 19.752-34.566 27.99-54.299 27.362-11.496-.366-38.005-7.438-58.133-13.279-9.744-2.828-11.344-15.952-2.558-21.025z" fill="#ccf3e2"/><path d="m195.134 130.885c-20.508-11.653-46.855-6.366-61.298 12.283-3.024 3.905-5.344 8.104-6.99 12.457-5.794 15.323-16.317 28.399-30.504 36.591-8.786 5.073-7.186 18.197 2.558 21.025 20.128 5.841 46.637 12.913 58.133 13.279 19.733.628 41.062-7.61 54.299-27.362 15.374-22.943 8.262-54.373-16.198-68.273zm2.204 45.388c-6.6 15.804-20.741 24.509-35.05 26.701-8.336 1.277-28.484-.203-43.852-1.662-7.439-.706-10.542-9.817-4.967-14.597 9.003-7.717 14.64-18.415 16.537-30.077.539-3.313 1.586-6.607 3.184-9.785 7.633-15.182 25.827-22.461 42.333-16.923 19.687 6.606 29.481 27.987 21.815 46.343z" fill="#b1b6e1"/><path d="m467.524 118.105 8.354 23.49c.358 1.006 1.066 1.803 1.959 2.205l20.87 9.403c2.948 1.328 2.948 6.026 0 7.355l-20.87 9.403c-.893.403-1.602 1.2-1.959 2.205l-8.354 23.49c-1.18 3.319-5.354 3.319-6.534 0l-8.354-23.49c-.358-1.006-1.066-1.803-1.959-2.205l-20.87-9.403c-2.948-1.328-2.948-6.026 0-7.355l20.87-9.403c.894-.403 1.602-1.2 1.959-2.205l8.354-23.49c1.18-3.319 5.354-3.319 6.534 0z" fill="#fbf2aa"/><path d="m70.305 18.642 6.197 17.425c.265.746.791 1.337 1.453 1.636l15.481 6.975c2.187.985 2.187 4.47 0 5.456l-15.481 6.975c-.663.299-1.188.89-1.453 1.636l-6.197 17.425c-.875 2.462-3.972 2.462-4.847 0l-6.197-17.425c-.265-.746-.791-1.337-1.453-1.636l-15.481-6.975c-2.187-.985-2.187-4.47 0-5.456l15.481-6.975c.663-.299 1.188-.89 1.453-1.636l6.197-17.425c.876-2.462 3.972-2.462 4.847 0z" fill="#fbf2aa"/><g fill="#f7e16e"><circle cx="23" cy="124" r="12"/><path d="m399.732 92.442c0 5.317-4.31 9.627-9.627 9.627s-9.627-4.31-9.627-9.627 4.31-9.626 9.627-9.626 9.627 4.31 9.627 9.626z"/></g></g><g><g fill="#3c122c"><path d="m438.169 399.246c4.37-3.693 9.267-8.606 13.813-14.903 10.943-15.161 22.104-41.663 13.139-81.819-8.865-39.703-28.452-60.167-43.322-70.343-8.797-6.02-16.974-9.269-22.892-11.008-.589-14.571-4.514-43.215-25.46-56.246-2.929-1.822-6.047-3.25-9.343-4.301-.336-10.335-2.627-19.585-4.504-25.547-1.972-6.264-9.309-27.014-20.918-31.007-11.617-3.999-30.16 7.846-35.569 11.57-.115.079-.241.17-.359.252-5.381-12.166-12.645-20.979-21.753-26.295-13.338-7.783-29.485-7.588-48.148.531-2.351-5.038-5.662-9.748-10.311-13.794-6.198-20.548-15.417-42.905-28.134-68.22-2.675-5.916-9.113-9.18-15.498-7.8-6.329 1.369-10.811 6.906-10.889 13.317-1.73 25.458-1.161 43.595 1.852 58.092-5.446 15.46-4.409 30.596 3.097 45.039.309.594.683 1.127 1.085 1.632-.019.097-.034.194-.053.291-1.332-.056-2.664-.068-3.994-.026-8.16-8.619-17.651-14.5-23.843-17.776-5.754-3.046-25.386-12.572-36.385-7.291-10.996 5.281-15.837 26.559-17.059 32.954-1.996 10.451-4.092 30.591 4.299 48.067 1.196 2.491 2.499 4.842 3.882 7.079-2.409 1.938-4.946 3.7-7.611 5.238v-.001c-6.216 3.589-9.541 10.243-8.677 17.366.603 4.983 3.146 9.249 6.976 12.053-.94 2.124-1.808 4.241-2.569 6.334-7.735 21.27-12.228 48.201-13.67 57.772-25.062 25.275-33.749 59.786-22.64 90.889 8.758 24.523 25.757 43.398 50.524 56.102 16.153 8.285 38.558 12.073 55.823 12.889-5.979 18.407-9.762 40.215-12.723 59.984-.832 5.555 2.996 10.732 8.551 11.564 5.551.835 10.732-2.996 11.564-8.551 3.579-23.897 8.36-50.793 16.675-69.085 1.496-3.291 1.132-7.129-.954-10.08-2.087-2.951-5.58-4.571-9.185-4.261-14.293 1.242-43.264-1.735-60.468-10.559-20.014-10.265-33.691-25.354-40.653-44.845-8.724-24.428-1.049-51.93 20.03-71.774 1.701-1.602 2.8-3.743 3.11-6.059.044-.331 4.524-33.365 13.131-57.036.566-1.554 1.477-3.854 2.773-6.658 22.352 6.141 37.775 9.381 45.931 9.641.777.025 1.552.037 2.325.037 23.262 0 44.527-11.137 57.237-30.101.241-.359.461-.73.693-1.095 1.697-.247 3.378-.526 5.007-.868 16.392-3.437 35.109-12.677 34.409-27.447-.212-2.27-.335-4.577-.532-6.817 7.492.152 14.926 1.197 22.124 3.135 5.337 1.437 10.851-1.655 12.405-6.964.303-1.035.571-1.887.843-2.679 6.707-19.491 31.852-34.369 40.566-36.084 5.814 6.713 16.479 33.914 9.772 53.404-2.412 7.011-5.769 12.737-9.978 17.019-3.389 3.449-3.881 8.808-1.177 12.816 10.254 15.198 15.682 32.959 15.7 51.371l-1.09 59.052c-.001.062-.002.125-.002.188 0 26.48-2.786 45.672-9.315 64.172-1.433 4.06-.155 8.581 3.192 11.29 27.913 22.591 50.742 62.179 64.284 111.471 1.878 7.57 12.059 9.967 17.141 4.337 8.109-5.667 38.874-29.383 38.874-63.039-.002-22.792-11.448-37.877-21.149-46.569zm-237.585-324.869-10.072-3.405c-.052-.294-.105-.587-.166-.878-2.111-8.751-2.861-19.145-2.944-29.322 5.286 11.881 9.655 23.027 13.182 33.605zm-12.833 8.543 18.471 6.246c.457.482.947.933 1.484 1.325 6.815 4.969 9.893 13.024 10.218 27.169l-26.293-8.798c-.167-.501-.363-.997-.614-1.48-4.199-8.08-5.271-15.991-3.266-24.462zm-68.961 29.434c5.347.449 17.152 4.975 27.565 12.55-6.601 3.475-12.555 8.344-17.343 14.527-3.328 4.296-5.977 9.018-7.874 14.034-1.601 4.235-3.601 8.249-5.935 11.999-8.526-18.279-1.305-45.829 3.587-53.11zm87.473 83.406c-10.773 16.076-29.144 25.291-49.035 24.66-8.466-.269-28.576-4.901-56.627-13.04-3.192-.927-3.77-3.717-3.871-4.551-.1-.831-.206-3.672 2.665-5.329v-.001c14.967-8.642 26.743-22.747 33.16-39.717 1.467-3.881 3.522-7.541 6.107-10.878 8.095-10.453 20.476-16.09 33.038-16.09 6.987 0 14.031 1.745 20.421 5.376 10.26 5.83 17.394 15.327 20.089 26.74 2.657 11.26.49 23.226-5.947 32.83zm17.053-8.004c1.484-5.054 2.216-10.31 2.186-15.588l17.384 5.123c-2.876 3.729-9.901 7.882-19.57 10.465zm.457-28.821c-3.69-14.218-12.742-26.035-25.624-33.355-3.559-2.022-7.276-3.589-11.074-4.721.233-.137.47-.27.69-.421 0 0 42.737 14.223 43.195 14.265 6.947 8.066 11.099 17.984 12.589 30.059zm50.538-11.156c-6.656-1.211-13.427-1.822-20.225-1.822h-2.61c-3.043-8.134-7.482-15.32-13.32-21.488.062-.424.108-.853.116-1.293.079-4.133.018-8.523-.39-12.977 13.758-6.69 24.789-7.74 32.852-3.042 7.268 4.235 12.302 12.777 15.758 22.819-4.597 5.002-8.991 10.964-12.181 17.803zm144.168 336.488c-10.867-33.744-29.612-74.22-61.261-102.434 5.756-18.709 8.256-38.366 8.262-64.149l1.09-59.055c.001-.063.002-.125.002-.188 0-19.911-5.187-39.21-15.065-56.269 3.866-5.292 7.021-11.456 9.414-18.411.25-.727.478-1.457.695-2.187.356.192.709.389 1.055.603 14.792 9.166 16.505 36.713 15.918 46.536-.349 5.484 3.642 10.244 9.112 10.76 1.78.198 43.74 5.547 57.569 67.483 13.691 61.319-27.444 82.108-29.144 82.935-3.545 1.667-5.844 5.209-5.868 9.126-.025 3.917 2.175 7.487 5.699 9.198.94.471 23.02 11.829 23.02 37.605-.001 16.205-11.433 30.028-20.498 38.447z"/><path d="m152.671 291.084c0 6.931-5.618 12.549-12.549 12.549s-12.549-5.618-12.549-12.549 5.618-12.549 12.549-12.549c6.93 0 12.549 5.618 12.549 12.549z"/><circle cx="267" cy="291" r="12"/><path d="m199.239 352.702c-12.088 0-21.922-10.454-21.922-23.303 0-3.37 2.732-6.102 6.102-6.102s6.102 2.732 6.102 6.102c0 6.12 4.36 11.099 9.718 11.099s9.717-4.979 9.717-11.099c0-3.37 2.732-6.102 6.102-6.102s6.102 2.732 6.102 6.102c0 12.85-9.833 23.303-21.921 23.303z"/></g><path d="m148.774 177.843c-1.511 0-3.044-.338-4.49-1.051-5.037-2.484-7.107-8.582-4.623-13.619 9.146-18.547 24.33-23.25 26.032-23.726 0 0 9.093-2.661 12.077 7.155 2.983 9.816-6.43 12.384-6.43 12.384-.337.108-8.297 2.761-13.436 13.183-1.772 3.591-5.379 5.674-9.13 5.674z" fill="#ffffff"/></g></g><path d="M165,0C74.019,0,0,74.019,0,165s74.019,165,165,165c90.982,0,165-74.019,165-165S255.982,0,165,0z" transform="matrix(0.03030303120613098 0 0 0.03030303120613098 257.5 257.5)" id="L1_77" fill="#7fda3d"/><g transform="matrix(0.05859375 0 0 0.05859375 335 160)" id="L1_78"><g><path d="m418.932 501.74s36.639-17.191 41.074-48.53c4.435-31.338-20.356-48.432-20.356-48.432s50.168-16.059 45.06-85.606c-5.107-69.547-51.592-80.79-51.592-80.79s18.978-92.574-73.071-54.475c0 0 23.173-124.705-65.359-84.05l-23.893 223.053z" fill="#e8c2d8"/><path d="m437.867 404.497s54.088-15.583 49.675-88.405c-.794-13.096-10.881-31.779-14.053-41.271 3.746 103.962-72.253 140.032-138.59 74.099-3.56-3.538-19.985 31.097-24.715 29.688l103.959 126.75s39.586-17.092 44.827-49.744c5.24-32.654-21.103-51.117-21.103-51.117z" fill="#d392d8"/><path d="m416.545 501.639c-15.144-40.782-39.048-72.655-66.747-93.524l-.01.239c11.222-15.902 19.973-34.003 28.123-62.856l17.273-57.109c5.802-20.544 4.954-41.393-1.259-60.25 6.313-3.605 12.36-9.162 17.69-16.842 16.232-23.389 10.124-64.113 2.841-69.167-7.283-5.055-47.57 3.472-63.802 26.86-.641.924-1.239 1.847-1.816 2.768-7.623-4.551-15.959-8.192-24.91-10.72l-61.283-17.309c-4.577-1.293-9.072-2.186-13.477-2.738.964-5.808.932-12.312-.306-19.424-4.833-27.755-37.45-52.183-46.092-50.678-8.643 1.505-31.082 35.52-26.249 63.275 1.599 9.183 4.75 16.736 8.964 22.62-14.249 9.188-25.184 20.562-31.688 29.596-15.697 21.8-29.471 53.682-29.471 53.682-30.295 15.77-46.616 44.447-44.613 73.964 1.653 24.355 12.666 44.98 30.411 61.486 15.597 14.507 44.249 26.22 60.857 29.389l2.55 1.229c-9.719 32.267-15.939 73.863-15.893 95.508" fill="#faf1a9"/><path d="m350.684 408.194c11.168-15.863 19.889-33.939 28.011-62.695l17.273-57.109c5.803-20.544 4.954-41.393-1.259-60.25 6.313-3.604 12.361-9.162 17.69-16.842 16.232-23.388 10.124-64.113 2.841-69.167-3.36-2.331-13.747-1.766-25.552 1.809 4.747 7.965 3.99 44.48-11.986 65.045-5.513 7.098-11.368 12.13-17.199 15.282 2.888 18.34.956 38.333-6.597 57.72l-21.97 53.837c-7.048 18.091-13.719 31.626-20.797 42.981-5.793 9.294-5.411 21.149 1.114 29.944 8.923 12.026 16.628 26.266 22.696 42.483 6.355 16.983-6.76 34.917-24.866 33.911l-150.37-3.349c-1.094 9.599-1.308 13.179-1.294 19.847h258.909c-15.124-40.734-38.989-72.577-66.644-93.447z" fill="#dfb5a7"/><path d="m310.508 187.607c.097-.45.175-.907.209-1.382 4.431-17.356 3.583-33.76-4.97-48.773 5.352-19.306 4.649-35.763-4.913-48.215.099-23.054-2.769-48.523-7.713-75.682-.416-4.085-6.204-4.507-7.209-.526-7.724 20.87-13.636 40.631-14.454 57.276-8.862 11.135-12.693 23.86-9.778 38.747-7.919 11.569-12.009 24.805-10.221 40.5-10.177 11.612-9.134 25.26-9.163 31.571 1.168 21.553 63.905 26.434 68.212 6.484z" fill="#ccf3e2"/><path d="m310.508 187.607c.097-.45.175-.907.209-1.382 3.147-12.326 3.612-24.168.565-35.376-.35 3.315-.957 6.672-1.821 10.073-.027.406-.092.797-.174 1.181-3.635 17.033-58.762 12.398-59.945-6.046-.004-1.042-.045-2.32-.045-3.772-7.852 10.951-6.974 23.016-7.001 28.838 1.168 21.553 63.905 26.434 68.212 6.484z" fill="#b1b6e1"/><path d="m156.007 162.235c16.058-3.891 29.958-13.55 39.924-26.729 2.831-3.743 6.27-7.147 10.306-10.065 19.28-13.937 46.277-11.559 62.806 5.551 19.714 20.407 17.656 52.842-3.746 70.667-18.427 15.347-41.408 17.251-60.323 11.03-11.019-3.624-34.658-18.008-52.473-29.384-8.623-5.506-6.439-18.661 3.506-21.07z" fill="#e8c2d8"/><path d="m269.043 130.992c-16.529-17.109-43.526-19.488-62.806-5.551-4.037 2.918-7.476 6.321-10.306 10.065-9.965 13.178-23.866 22.838-39.924 26.729-9.944 2.41-12.129 15.564-3.505 21.071 17.815 11.377 41.453 25.76 52.473 29.384 18.915 6.221 41.896 4.317 60.323-11.031 21.401-17.825 23.459-50.26 3.745-70.667zm-10.778 44.545c-10.882 13.415-27.041 17.815-41.509 15.866-8.429-1.135-27.503-8.299-41.959-14.082-6.997-2.8-7.408-12.498-.654-15.537 10.906-4.906 19.404-13.654 24.556-24.398 1.464-3.052 3.414-5.942 5.864-8.563 11.704-12.519 31.38-14.387 45.775-4.333 17.171 11.991 20.567 35.466 7.927 51.047z" fill="#d392d8"/><path d="m246.509 319.835c-3.853 2.873-15.816 6.935-18.689 3.083-2.873-3.853 4.431-14.161 8.284-17.034s9.305-2.079 12.178 1.773c2.874 3.852 2.08 9.304-1.773 12.178z" fill="#d789b9"/><path d="m55.45 110.691 11.937 21.825 21.824 11.936-21.824 11.936-11.937 21.825-11.936-21.825-21.825-11.936 21.825-11.936z" fill="#f6e06e"/><path d="m462.785 59.72 8.426 23.691c.361 1.014 1.075 1.818 1.976 2.224l21.048 9.483c2.974 1.34 2.974 6.078 0 7.417l-21.048 9.483c-.901.406-1.615 1.21-1.976 2.224l-8.426 23.691c-1.19 3.347-5.4 3.347-6.59 0l-8.426-23.691c-.361-1.014-1.075-1.818-1.976-2.224l-21.048-9.483c-2.974-1.34-2.974-6.078 0-7.417l21.048-9.483c.901-.406 1.615-1.21 1.976-2.224l8.426-23.691c1.19-3.347 5.4-3.347 6.59 0z" fill="#ccf3e2"/><g fill="#a1e8c3"><circle cx="81" cy="58" r="12"/><path d="m394.413 33.838c0 5.362-4.347 9.709-9.709 9.709s-9.709-4.347-9.709-9.709 4.347-9.709 9.709-9.709c5.362.001 9.709 4.347 9.709 9.709z"/></g></g><g><path d="m471.582 395.068c12.262-13.091 26.268-37.016 23.358-76.646-4.243-57.767-34.992-79.386-50.536-86.687 1.29-13.026 1.465-37.634-12.415-53.359.185-3.347.191-6.354.117-8.842-.197-6.62-1.63-28.77-11.801-35.83-10.174-7.06-31.423-.652-37.694 1.479-2.787.948-6.216 2.255-9.951 3.972-1.483-18.665-6.783-38.24-20.89-49.234-10.609-8.268-24.263-10.467-40.727-6.643-.339-20.954-2.887-44.346-7.781-71.286-.905-6.484-6.198-11.475-12.777-11.956-6.513-.469-12.426 3.608-14.324 9.79-8.916 24.142-13.524 41.854-14.732 56.737-6.978 9.68-10.621 20.163-10.931 31.304-5.263-8.81-11.681-15.743-16.172-20.03-4.751-4.533-21.188-19.168-33.316-17.051-12.121 2.111-22.651 21.436-25.59 27.309-4.803 9.596-12.358 28.57-9.004 47.832.875 5.023 2.176 9.724 3.881 14.082-4.971 2.8-10.261 4.918-15.739 6.245-7.035 1.704-12.145 7.197-13.335 14.336-.743 4.453.165 8.796 2.433 12.381-12.576 18.189-23.448 41.255-27.288 49.743-31.254 17.661-49.144 48.776-46.889 82.009 1.779 26.202 13.103 49.182 33.66 68.302 15.421 14.343 40.503 25.178 57.777 30.007-8.58 32.142-13.577 69.057-13.535 88.631.012 5.657 4.602 10.235 10.257 10.235h.022c5.664-.012 10.247-4.614 10.235-10.279-.043-20.115 5.727-60.224 15.458-92.527 1.455-4.834-.821-10.008-5.37-12.199l-2.55-1.229c-.803-.387-1.653-.667-2.529-.834-14.215-2.712-41.514-13.544-55.793-26.824-16.611-15.45-25.75-33.844-27.163-54.67-1.772-26.101 13.216-50.689 39.114-64.171 2.092-1.089 3.744-2.865 4.68-5.03.127-.294 12.288-28.287 26.311-48.799 20.563 12.773 35.016 20.576 43.002 23.202 7.399 2.434 14.959 3.626 22.418 3.626 15.891 0 31.325-5.413 43.765-15.774.336-.279.654-.576.983-.863 1.712.244 3.417.453 5.09.586 2.116.168 4.293.258 6.491.258 15.307 0 31.567-4.367 34.624-17.068.017-.061.031-.122.046-.182.016-.072.038-.14.054-.212.007-.032.009-.064.016-.096.022-.109.04-.218.056-.329.078-.408.158-.815.202-1.197 1.451-5.799 2.309-11.427 2.579-16.873l1.763.498c7.893 2.23 15.443 5.479 22.44 9.656 4.789 2.859 10.984 1.369 13.948-3.357.585-.932 1.078-1.685 1.555-2.37 11.853-17.079 40.34-24.617 49.262-23.902 3.802 8.112 6.697 37.435-5.155 54.512-4.263 6.143-9.091 10.78-14.35 13.783-4.235 2.419-6.181 7.484-4.656 12.117 5.786 17.561 6.184 36.288 1.155 54.164l-17.245 57.017c-.019.06-.036.121-.053.181-7.045 24.939-14.751 42.497-25.624 58.284-1.713 1.776-2.759 4.144-2.866 6.692l-.01.239c-.172 4.103 2.114 7.867 5.729 9.638 26.742 20.707 48.039 50.966 61.66 87.647 1.536 4.134 5.452 6.689 9.617 6.689.264 0 .53-.014.796-.035.526.083 1.059.136 1.597.136 1.458 0 2.942-.313 4.35-.974 1.701-.798 41.72-19.966 46.872-56.379 3.062-21.637-5.382-37.55-13.22-47.241 4.497-2.953 9.608-6.973 14.638-12.341zm-189.952-323.528c.024-.197.047-.395.059-.593.003-.047.012-.091.014-.138.446-9.068 2.676-19.339 5.492-29.21 1.734 12.999 2.792 25.027 3.195 36.267l-8.777-6.16c.008-.055.01-.111.017-.166zm-6.088 10.942 16.097 11.298c.019.039.043.076.063.115.082.16.169.315.259.471.078.134.156.268.24.4.102.159.211.313.322.466.06.083.111.17.174.252 5.182 6.747 5.869 15.416 2.16 29.196l-22.939-15.992c-.019-.532-.068-1.068-.173-1.607-1.765-9.013-.552-16.973 3.797-24.599zm-70.931-1.017c6.476 2.431 21.37 14.205 29.338 28.786-10.961.083-21.948 3.429-31.318 10.203-4.44 3.21-8.346 7.026-11.609 11.34-1.149 1.519-2.354 2.982-3.608 4.388-.299-1.223-.563-2.48-.789-3.775-3.509-20.144 11.2-45.181 17.986-50.942zm56.747 115.466c-14.997 12.49-35.354 16.197-54.462 9.913-8.113-2.668-26.255-12.87-51.082-28.725-2.826-1.804-2.591-4.669-2.452-5.504.139-.833.844-3.612 4.094-4.399 16.94-4.104 32.346-14.403 43.383-28.998 2.524-3.339 5.553-6.296 9.002-8.789 7.338-5.305 15.956-7.898 24.539-7.898 11.086 0 22.115 4.33 30.236 12.738 8.27 8.56 12.472 19.779 11.832 31.589-.63 11.649-6.13 22.61-15.09 30.073zm18.777-2.894c2.873-4.468 5.077-9.345 6.55-14.461l15.364 9.902c-3.845 2.791-11.826 4.811-21.914 4.559zm26.116-16.494-17.476-11.263c.473-14.807-4.923-28.816-15.306-39.564-2.868-2.969-6.019-5.542-9.372-7.718.264-.067.531-.127.786-.211l36.486 25.436c.398.277.821.483 1.253.655 4.427 9.782 5.623 20.558 3.629 32.665zm39.594-19.062c-6.128-2.999-12.532-5.449-19.131-7.313l-9.733-2.748c-1.119-3.928-2.613-7.729-4.484-11.395.181-.393.346-.797.48-1.22 3.102-9.847 5.829-21.457 4.244-32.912 9.359-1.912 16.708-.859 21.927 3.202 10.48 8.156 13.328 27.869 13.325 45.786-2.321 2.005-4.556 4.197-6.628 6.6zm90.678 236.529c-3.724 1.192-6.475 4.379-7.048 8.248-.572 3.868 1.077 7.706 4.296 9.926.799.568 19.533 14.176 16.078 38.59-2.465 17.421-18.055 30.04-27.673 36.282-13.934-33.222-33.938-61.281-58.541-82.019 9.959-15.975 17.376-33.805 24.119-57.658l17.247-57.02c.019-.06.036-.121.054-.182 5.458-19.325 5.714-39.478.802-58.742 5.205-4.077 9.955-9.195 14.185-15.29 1.449-2.088 2.727-4.249 3.859-6.453 1.319 10.049.208 20.461-.832 25.63-1.11 5.412 2.176 10.708 7.546 12.007 1.608.421 39.416 11.001 43.866 71.594 4.416 60.134-36.291 74.526-37.958 75.087z" fill="#3c122c"/><path d="m213.726 163.658c-2.483 0-4.973-.896-6.945-2.711-4.167-3.837-4.435-10.326-.599-14.493 14.127-15.344 30.157-15.572 31.937-15.553 0 0 10.095-.503 10.785 9.5s-10.878 11.012-10.878 11.012c-.357.008-8.812.311-16.751 8.934-2.022 2.198-4.782 3.311-7.549 3.311z" fill="#ffffff"/><g fill="#3c122c"><ellipse cx="178px" cy="258px" rx="12px" ry="12px" transform="matrix(0.033 -0.999 0.999 0.033 -86.481 428.1)"/><path d="m285.62 309.815c-1.485 0-2.973-.534-4.153-1.616-2.849-2.611-12.105-11.768-11.62-19.983.555-9.423 13.981-13.798 19.728-15.242 3.287-.829 6.639 1.172 7.468 4.469.827 3.294-1.17 6.635-4.462 7.466-4.156 1.055-8.836 3.13-10.341 4.525.647 2.028 4.061 6.483 7.549 9.695 2.498 2.3 2.663 6.192.366 8.693-1.214 1.322-2.872 1.993-4.535 1.993z"/><path d="m253.216 303.977c-4.898-6.566-14.223-7.924-20.79-3.027-2.716 2.025-6.065 6.059-8.332 10.036-2.35 4.121-3.128 7.404-3.067 9.99-.202.146-.403.294-.615.426-2.302 1.433-4.905 1.852-7.333 1.177-2.428-.673-4.446-2.372-5.681-4.784-1.323-2.585-1.598-5.647-.773-8.621.908-3.275-1.012-6.667-4.287-7.574-3.28-.91-6.667 1.012-7.575 4.287-1.651 5.957-1.055 12.178 1.68 17.518 2.823 5.514 7.563 9.433 13.349 11.036 1.858.515 3.747.77 5.63.77 3.977 0 7.926-1.137 11.495-3.359.742-.462 1.439-.979 2.117-1.52 1.036.214 2.115.325 3.225.325 7.207 0 15.454-4.041 17.931-5.887 6.565-4.899 7.923-14.226 3.026-20.793zm-10.385 10.924c-1.77 1.32-5.782 2.747-8.639 3.264 1.31-2.591 3.822-6.029 5.592-7.349.457-.341.991-.504 1.52-.504.777 0 1.546.354 2.044 1.023.841 1.127.608 2.726-.517 3.566z"/><path d="m55.451 184.367c-2.25 0-4.32-1.227-5.399-3.201l-11.072-20.243-20.243-11.072c-1.974-1.079-3.201-3.15-3.201-5.399 0-2.25 1.227-4.32 3.201-5.399l20.243-11.071 11.072-20.243c1.079-1.974 3.149-3.201 5.399-3.201 2.25 0 4.32 1.228 5.4 3.201l11.07 20.243 20.243 11.071c1.974 1.079 3.201 3.15 3.201 5.399 0 2.25-1.227 4.32-3.201 5.399l-20.243 11.072-11.07 20.243c-1.08 1.973-3.151 3.201-5.4 3.201zm-20.937-39.915 11.953 6.537c1.033.565 1.882 1.414 2.446 2.447l6.538 11.952 6.536-11.952c.565-1.033 1.414-1.882 2.447-2.447l11.953-6.537-11.953-6.537c-1.033-.565-1.882-1.414-2.447-2.447l-6.536-11.952-6.538 11.952c-.564 1.033-1.413 1.882-2.446 2.447z"/><path d="m101.377 207.158c-2.916 0-5.812-1.236-7.84-3.637l-15.207-18c-3.656-4.327-3.111-10.799 1.216-14.454 4.326-3.658 10.799-3.112 14.454 1.215l15.207 18c3.656 4.327 3.111 10.799-1.216 14.454-1.925 1.627-4.276 2.422-6.614 2.422z"/></g></g></g></defs><g fi:class="KUsePattern"><pattern id="pattern_L1_74" width="350" height="350" patternUnits="userSpaceOnUse"><use xlink:href="#L1_74" x="-350" y="-350"/><use xlink:href="#L1_74" x="0" y="-350"/><use xlink:href="#L1_74" x="350" y="-350"/><use xlink:href="#L1_74" x="-350" y="0"/><use xlink:href="#L1_74" x="0" y="0"/><use xlink:href="#L1_74" x="350" y="0"/><use xlink:href="#L1_74" x="-350" y="350"/><use xlink:href="#L1_74" x="0" y="350"/><use xlink:href="#L1_74" x="350" y="350"/></pattern><rect x="0" y="0" width="100%" height="100%" fill="url(#pattern_L1_74)"/></g><g fi:class="KUsePattern"><pattern id="pattern_L1_75" width="350" height="350" patternUnits="userSpaceOnUse"><use xlink:href="#L1_75" x="-350" y="-350"/><use xlink:href="#L1_75" x="0" y="-350"/><use xlink:href="#L1_75" x="350" y="-350"/><use xlink:href="#L1_75" x="-350" y="0"/><use xlink:href="#L1_75" x="0" y="0"/><use xlink:href="#L1_75" x="350" y="0"/><use xlink:href="#L1_75" x="-350" y="350"/><use xlink:href="#L1_75" x="0" y="350"/><use xlink:href="#L1_75" x="350" y="350"/></pattern><rect x="0" y="0" width="100%" height="100%" fill="url(#pattern_L1_75)"/></g><g fi:class="KUsePattern"><pattern id="pattern_L1_76" width="350" height="350" patternUnits="userSpaceOnUse"><use xlink:href="#L1_76" x="-350" y="-350"/><use xlink:href="#L1_76" x="0" y="-350"/><use xlink:href="#L1_76" x="350" y="-350"/><use xlink:href="#L1_76" x="-350" y="0"/><use xlink:href="#L1_76" x="0" y="0"/><use xlink:href="#L1_76" x="350" y="0"/><use xlink:href="#L1_76" x="-350" y="350"/><use xlink:href="#L1_76" x="0" y="350"/><use xlink:href="#L1_76" x="350" y="350"/></pattern><rect x="0" y="0" width="100%" height="100%" fill="url(#pattern_L1_76)"/></g><g fi:class="KUsePattern"><pattern id="pattern_L1_77" width="350" height="350" patternUnits="userSpaceOnUse"><use xlink:href="#L1_77" x="-350" y="-350"/><use xlink:href="#L1_77" x="0" y="-350"/><use xlink:href="#L1_77" x="350" y="-350"/><use xlink:href="#L1_77" x="-350" y="0"/><use xlink:href="#L1_77" x="0" y="0"/><use xlink:href="#L1_77" x="350" y="0"/><use xlink:href="#L1_77" x="-350" y="350"/><use xlink:href="#L1_77" x="0" y="350"/><use xlink:href="#L1_77" x="350" y="350"/></pattern><rect x="0" y="0" width="100%" height="100%" fill="url(#pattern_L1_77)"/></g><g fi:class="KUsePattern"><pattern id="pattern_L1_78" width="350" height="350" patternUnits="userSpaceOnUse"><use xlink:href="#L1_78" x="-350" y="-350"/><use xlink:href="#L1_78" x="0" y="-350"/><use xlink:href="#L1_78" x="350" y="-350"/><use xlink:href="#L1_78" x="-350" y="0"/><use xlink:href="#L1_78" x="0" y="0"/><use xlink:href="#L1_78" x="350" y="0"/><use xlink:href="#L1_78" x="-350" y="350"/><use xlink:href="#L1_78" x="0" y="350"/><use xlink:href="#L1_78" x="350" y="350"/></pattern><rect x="0" y="0" width="100%" height="100%" fill="url(#pattern_L1_78)"/></g></svg>